<?xml version="1.0" encoding="UTF-8" standalone="no"?>
<!DOCTYPE svg PUBLIC "-//W3C//DTD SVG 1.1//EN"
 "http://www.w3.org/Graphics/SVG/1.1/DTD/svg11.dtd">
<!-- Generated by graphviz version 2.43.0 (0)
 -->
<!-- Title: %3 Pages: 1 -->
<svg width="2741pt" height="548pt"
 viewBox="0.00 0.00 2741.47 548.00" xmlns="http://www.w3.org/2000/svg" xmlns:xlink="http://www.w3.org/1999/xlink">
<g id="graph0" class="graph" transform="scale(1 1) rotate(0) translate(4 544)">
<title>%3</title>
<polygon fill="white" stroke="transparent" points="-4,4 -4,-544 2737.47,-544 2737.47,4 -4,4"/>
<!-- [root] azurerm_linux_virtual_machine.myterraformvm (expand) -->
<g id="node1" class="node">
<title>[root] azurerm_linux_virtual_machine.myterraformvm (expand)</title>
<polygon fill="none" stroke="black" points="2155.28,-396 1798.28,-396 1798.28,-360 2155.28,-360 2155.28,-396"/>
<text text-anchor="middle" x="1976.78" y="-374.3" font-family="Times,serif" font-size="14.00">azurerm_linux_virtual_machine.myterraformvm</text>
</g>
<!-- [root] azurerm_network_interface.myterraformnic (expand) -->
<g id="node2" class="node">
<title>[root] azurerm_network_interface.myterraformnic (expand)</title>
<polygon fill="none" stroke="black" points="1611.28,-324 1282.28,-324 1282.28,-288 1611.28,-288 1611.28,-324"/>
<text text-anchor="middle" x="1446.78" y="-302.3" font-family="Times,serif" font-size="14.00">azurerm_network_interface.myterraformnic</text>
</g>
<!-- [root] azurerm_linux_virtual_machine.myterraformvm (expand)&#45;&gt;[root] azurerm_network_interface.myterraformnic (expand) -->
<g id="edge1" class="edge">
<title>[root] azurerm_linux_virtual_machine.myterraformvm (expand)&#45;&gt;[root] azurerm_network_interface.myterraformnic (expand)</title>
<path fill="none" stroke="black" d="M1847.81,-359.97C1768.62,-349.51 1667.19,-336.11 1586.16,-325.41"/>
<polygon fill="black" stroke="black" points="1586.25,-321.89 1575.88,-324.05 1585.33,-328.83 1586.25,-321.89"/>
</g>
<!-- [root] random_string.sshpassword (expand) -->
<g id="node14" class="node">
<title>[root] random_string.sshpassword (expand)</title>
<polygon fill="none" stroke="black" points="2388.78,-324 2170.78,-324 2170.78,-288 2388.78,-288 2388.78,-324"/>
<text text-anchor="middle" x="2279.78" y="-302.3" font-family="Times,serif" font-size="14.00">random_string.sshpassword</text>
</g>
<!-- [root] azurerm_linux_virtual_machine.myterraformvm (expand)&#45;&gt;[root] random_string.sshpassword (expand) -->
<g id="edge2" class="edge">
<title>[root] azurerm_linux_virtual_machine.myterraformvm (expand)&#45;&gt;[root] random_string.sshpassword (expand)</title>
<path fill="none" stroke="black" d="M2050.52,-359.97C2094.5,-349.8 2150.48,-336.87 2196.11,-326.33"/>
<polygon fill="black" stroke="black" points="2197.03,-329.71 2205.98,-324.05 2195.45,-322.89 2197.03,-329.71"/>
</g>
<!-- [root] azurerm_subnet.myterraformsubnet (expand) -->
<g id="node7" class="node">
<title>[root] azurerm_subnet.myterraformsubnet (expand)</title>
<polygon fill="none" stroke="black" points="1607.28,-252 1330.28,-252 1330.28,-216 1607.28,-216 1607.28,-252"/>
<text text-anchor="middle" x="1468.78" y="-230.3" font-family="Times,serif" font-size="14.00">azurerm_subnet.myterraformsubnet</text>
</g>
<!-- [root] azurerm_network_interface.myterraformnic (expand)&#45;&gt;[root] azurerm_subnet.myterraformsubnet (expand) -->
<g id="edge3" class="edge">
<title>[root] azurerm_network_interface.myterraformnic (expand)&#45;&gt;[root] azurerm_subnet.myterraformsubnet (expand)</title>
<path fill="none" stroke="black" d="M1452.22,-287.7C1454.67,-279.9 1457.62,-270.51 1460.35,-261.83"/>
<polygon fill="black" stroke="black" points="1463.75,-262.69 1463.41,-252.1 1457.07,-260.59 1463.75,-262.69"/>
</g>
<!-- [root] time_sleep.wait_3_mins (expand) -->
<g id="node15" class="node">
<title>[root] time_sleep.wait_3_mins (expand)</title>
<polygon fill="none" stroke="black" points="1072.28,-252 887.28,-252 887.28,-216 1072.28,-216 1072.28,-252"/>
<text text-anchor="middle" x="979.78" y="-230.3" font-family="Times,serif" font-size="14.00">time_sleep.wait_3_mins</text>
</g>
<!-- [root] azurerm_network_interface.myterraformnic (expand)&#45;&gt;[root] time_sleep.wait_3_mins (expand) -->
<g id="edge4" class="edge">
<title>[root] azurerm_network_interface.myterraformnic (expand)&#45;&gt;[root] time_sleep.wait_3_mins (expand)</title>
<path fill="none" stroke="black" d="M1333.14,-287.97C1256.69,-276.51 1156.71,-261.52 1082.62,-250.41"/>
<polygon fill="black" stroke="black" points="1082.75,-246.89 1072.34,-248.87 1081.71,-253.82 1082.75,-246.89"/>
</g>
<!-- [root] azurerm_network_interface_security_group_association.example (expand) -->
<g id="node3" class="node">
<title>[root] azurerm_network_interface_security_group_association.example (expand)</title>
<polygon fill="none" stroke="black" points="1779.78,-396 1303.78,-396 1303.78,-360 1779.78,-360 1779.78,-396"/>
<text text-anchor="middle" x="1541.78" y="-374.3" font-family="Times,serif" font-size="14.00">azurerm_network_interface_security_group_association.example</text>
</g>
<!-- [root] azurerm_network_interface_security_group_association.example (expand)&#45;&gt;[root] azurerm_network_interface.myterraformnic (expand) -->
<g id="edge5" class="edge">
<title>[root] azurerm_network_interface_security_group_association.example (expand)&#45;&gt;[root] azurerm_network_interface.myterraformnic (expand)</title>
<path fill="none" stroke="black" d="M1518.3,-359.7C1506.22,-350.8 1491.33,-339.82 1478.27,-330.2"/>
<polygon fill="black" stroke="black" points="1480.12,-327.22 1470,-324.1 1475.97,-332.85 1480.12,-327.22"/>
</g>
<!-- [root] azurerm_network_security_group.myterraformnsg (expand) -->
<g id="node4" class="node">
<title>[root] azurerm_network_security_group.myterraformnsg (expand)</title>
<polygon fill="none" stroke="black" points="2006.28,-324 1629.28,-324 1629.28,-288 2006.28,-288 2006.28,-324"/>
<text text-anchor="middle" x="1817.78" y="-302.3" font-family="Times,serif" font-size="14.00">azurerm_network_security_group.myterraformnsg</text>
</g>
<!-- [root] azurerm_network_interface_security_group_association.example (expand)&#45;&gt;[root] azurerm_network_security_group.myterraformnsg (expand) -->
<g id="edge6" class="edge">
<title>[root] azurerm_network_interface_security_group_association.example (expand)&#45;&gt;[root] azurerm_network_security_group.myterraformnsg (expand)</title>
<path fill="none" stroke="black" d="M1608.95,-359.97C1648.69,-349.89 1699.17,-337.08 1740.55,-326.59"/>
<polygon fill="black" stroke="black" points="1741.49,-329.96 1750.32,-324.11 1739.77,-323.18 1741.49,-329.96"/>
</g>
<!-- [root] azurerm_resource_group.myterraformgroup (expand) -->
<g id="node6" class="node">
<title>[root] azurerm_resource_group.myterraformgroup (expand)</title>
<polygon fill="none" stroke="black" points="1668.78,-108 1336.78,-108 1336.78,-72 1668.78,-72 1668.78,-108"/>
<text text-anchor="middle" x="1502.78" y="-86.3" font-family="Times,serif" font-size="14.00">azurerm_resource_group.myterraformgroup</text>
</g>
<!-- [root] azurerm_network_security_group.myterraformnsg (expand)&#45;&gt;[root] azurerm_resource_group.myterraformgroup (expand) -->
<g id="edge7" class="edge">
<title>[root] azurerm_network_security_group.myterraformnsg (expand)&#45;&gt;[root] azurerm_resource_group.myterraformgroup (expand)</title>
<path fill="none" stroke="black" d="M1795.25,-287.97C1783.1,-278.19 1768.29,-265.24 1756.78,-252 1719.27,-208.82 1732.73,-178.07 1686.78,-144 1667.07,-129.38 1643.42,-118.79 1619.75,-111.11"/>
<polygon fill="black" stroke="black" points="1620.56,-107.7 1609.98,-108.1 1618.51,-114.39 1620.56,-107.7"/>
</g>
<!-- [root] var.ssh_port -->
<g id="node17" class="node">
<title>[root] var.ssh_port</title>
<polygon fill="none" stroke="black" points="1863.78,-252 1765.78,-252 1765.78,-216 1869.78,-216 1869.78,-246 1863.78,-252"/>
<polyline fill="none" stroke="black" points="1863.78,-252 1863.78,-246 "/>
<polyline fill="none" stroke="black" points="1869.78,-246 1863.78,-246 "/>
<text text-anchor="middle" x="1817.78" y="-230.3" font-family="Times,serif" font-size="14.00">var.ssh_port</text>
</g>
<!-- [root] azurerm_network_security_group.myterraformnsg (expand)&#45;&gt;[root] var.ssh_port -->
<g id="edge8" class="edge">
<title>[root] azurerm_network_security_group.myterraformnsg (expand)&#45;&gt;[root] var.ssh_port</title>
<path fill="none" stroke="black" d="M1817.78,-287.7C1817.78,-279.98 1817.78,-270.71 1817.78,-262.11"/>
<polygon fill="black" stroke="black" points="1821.28,-262.1 1817.78,-252.1 1814.28,-262.1 1821.28,-262.1"/>
</g>
<!-- [root] azurerm_public_ip.myterraformpublicip (expand) -->
<g id="node5" class="node">
<title>[root] azurerm_public_ip.myterraformpublicip (expand)</title>
<polygon fill="none" stroke="black" points="631.78,-180 331.78,-180 331.78,-144 631.78,-144 631.78,-180"/>
<text text-anchor="middle" x="481.78" y="-158.3" font-family="Times,serif" font-size="14.00">azurerm_public_ip.myterraformpublicip</text>
</g>
<!-- [root] azurerm_public_ip.myterraformpublicip (expand)&#45;&gt;[root] azurerm_resource_group.myterraformgroup (expand) -->
<g id="edge9" class="edge">
<title>[root] azurerm_public_ip.myterraformpublicip (expand)&#45;&gt;[root] azurerm_resource_group.myterraformgroup (expand)</title>
<path fill="none" stroke="black" d="M631.99,-144.76C634.95,-144.5 637.88,-144.24 640.78,-144 877.85,-124.05 1152.19,-108.47 1326.53,-99.51"/>
<polygon fill="black" stroke="black" points="1326.76,-103 1336.57,-98.99 1326.4,-96.01 1326.76,-103"/>
</g>
<!-- [root] provider[&quot;registry.terraform.io/hashicorp/azurerm&quot;] -->
<g id="node10" class="node">
<title>[root] provider[&quot;registry.terraform.io/hashicorp/azurerm&quot;]</title>
<polygon fill="none" stroke="black" points="1291.78,-36 937.19,-18 1291.78,0 1646.37,-18 1291.78,-36"/>
<text text-anchor="middle" x="1291.78" y="-14.3" font-family="Times,serif" font-size="14.00">provider[&quot;registry.terraform.io/hashicorp/azurerm&quot;]</text>
</g>
<!-- [root] azurerm_resource_group.myterraformgroup (expand)&#45;&gt;[root] provider[&quot;registry.terraform.io/hashicorp/azurerm&quot;] -->
<g id="edge10" class="edge">
<title>[root] azurerm_resource_group.myterraformgroup (expand)&#45;&gt;[root] provider[&quot;registry.terraform.io/hashicorp/azurerm&quot;]</title>
<path fill="none" stroke="black" d="M1451.44,-71.97C1419.6,-61.4 1378.73,-47.85 1346.32,-37.09"/>
<polygon fill="black" stroke="black" points="1347.14,-33.68 1336.55,-33.85 1344.94,-40.32 1347.14,-33.68"/>
</g>
<!-- [root] var.location -->
<g id="node16" class="node">
<title>[root] var.location</title>
<polygon fill="none" stroke="black" points="1757.28,-36 1664.28,-36 1664.28,0 1763.28,0 1763.28,-30 1757.28,-36"/>
<polyline fill="none" stroke="black" points="1757.28,-36 1757.28,-30 "/>
<polyline fill="none" stroke="black" points="1763.28,-30 1757.28,-30 "/>
<text text-anchor="middle" x="1713.78" y="-14.3" font-family="Times,serif" font-size="14.00">var.location</text>
</g>
<!-- [root] azurerm_resource_group.myterraformgroup (expand)&#45;&gt;[root] var.location -->
<g id="edge11" class="edge">
<title>[root] azurerm_resource_group.myterraformgroup (expand)&#45;&gt;[root] var.location</title>
<path fill="none" stroke="black" d="M1554.13,-71.97C1584.42,-61.92 1622.88,-49.16 1654.47,-38.68"/>
<polygon fill="black" stroke="black" points="1655.64,-41.98 1664.03,-35.51 1653.44,-35.33 1655.64,-41.98"/>
</g>
<!-- [root] azurerm_virtual_network.myterraformnetwork (expand) -->
<g id="node8" class="node">
<title>[root] azurerm_virtual_network.myterraformnetwork (expand)</title>
<polygon fill="none" stroke="black" points="1677.78,-180 1327.78,-180 1327.78,-144 1677.78,-144 1677.78,-180"/>
<text text-anchor="middle" x="1502.78" y="-158.3" font-family="Times,serif" font-size="14.00">azurerm_virtual_network.myterraformnetwork</text>
</g>
<!-- [root] azurerm_subnet.myterraformsubnet (expand)&#45;&gt;[root] azurerm_virtual_network.myterraformnetwork (expand) -->
<g id="edge12" class="edge">
<title>[root] azurerm_subnet.myterraformsubnet (expand)&#45;&gt;[root] azurerm_virtual_network.myterraformnetwork (expand)</title>
<path fill="none" stroke="black" d="M1477.19,-215.7C1481.06,-207.73 1485.74,-198.1 1490.03,-189.26"/>
<polygon fill="black" stroke="black" points="1493.26,-190.63 1494.48,-180.1 1486.96,-187.57 1493.26,-190.63"/>
</g>
<!-- [root] azurerm_virtual_network.myterraformnetwork (expand)&#45;&gt;[root] azurerm_resource_group.myterraformgroup (expand) -->
<g id="edge13" class="edge">
<title>[root] azurerm_virtual_network.myterraformnetwork (expand)&#45;&gt;[root] azurerm_resource_group.myterraformgroup (expand)</title>
<path fill="none" stroke="black" d="M1502.78,-143.7C1502.78,-135.98 1502.78,-126.71 1502.78,-118.11"/>
<polygon fill="black" stroke="black" points="1506.28,-118.1 1502.78,-108.1 1499.28,-118.1 1506.28,-118.1"/>
</g>
<!-- [root] null_resource.pipcheck (expand) -->
<g id="node9" class="node">
<title>[root] null_resource.pipcheck (expand)</title>
<polygon fill="none" stroke="black" points="684.78,-396 504.78,-396 504.78,-360 684.78,-360 684.78,-396"/>
<text text-anchor="middle" x="594.78" y="-374.3" font-family="Times,serif" font-size="14.00">null_resource.pipcheck</text>
</g>
<!-- [root] provider[&quot;registry.terraform.io/hashicorp/null&quot;] -->
<g id="node11" class="node">
<title>[root] provider[&quot;registry.terraform.io/hashicorp/null&quot;]</title>
<polygon fill="none" stroke="black" points="594.78,-324 270.36,-306 594.78,-288 919.21,-306 594.78,-324"/>
<text text-anchor="middle" x="594.78" y="-302.3" font-family="Times,serif" font-size="14.00">provider[&quot;registry.terraform.io/hashicorp/null&quot;]</text>
</g>
<!-- [root] null_resource.pipcheck (expand)&#45;&gt;[root] provider[&quot;registry.terraform.io/hashicorp/null&quot;] -->
<g id="edge14" class="edge">
<title>[root] null_resource.pipcheck (expand)&#45;&gt;[root] provider[&quot;registry.terraform.io/hashicorp/null&quot;]</title>
<path fill="none" stroke="black" d="M594.78,-359.7C594.78,-351.98 594.78,-342.71 594.78,-334.11"/>
<polygon fill="black" stroke="black" points="598.28,-334.1 594.78,-324.1 591.28,-334.1 598.28,-334.1"/>
</g>
<!-- [root] null_resource.pipcheck (expand)&#45;&gt;[root] time_sleep.wait_3_mins (expand) -->
<g id="edge15" class="edge">
<title>[root] null_resource.pipcheck (expand)&#45;&gt;[root] time_sleep.wait_3_mins (expand)</title>
<path fill="none" stroke="black" d="M685.04,-371.29C769.84,-364.4 889.31,-350.32 927.78,-324 949.49,-309.15 963.41,-282.02 971.33,-261.61"/>
<polygon fill="black" stroke="black" points="974.62,-262.8 974.75,-252.21 968.04,-260.41 974.62,-262.8"/>
</g>
<!-- [root] provider[&quot;registry.terraform.io/hashicorp/random&quot;] -->
<g id="node12" class="node">
<title>[root] provider[&quot;registry.terraform.io/hashicorp/random&quot;]</title>
<polygon fill="none" stroke="black" points="2279.78,-252 1929.39,-234 2279.78,-216 2630.18,-234 2279.78,-252"/>
<text text-anchor="middle" x="2279.78" y="-230.3" font-family="Times,serif" font-size="14.00">provider[&quot;registry.terraform.io/hashicorp/random&quot;]</text>
</g>
<!-- [root] provider[&quot;registry.terraform.io/hashicorp/time&quot;] -->
<g id="node13" class="node">
<title>[root] provider[&quot;registry.terraform.io/hashicorp/time&quot;]</title>
<polygon fill="none" stroke="black" points="979.78,-180 649.83,-162 979.78,-144 1309.74,-162 979.78,-180"/>
<text text-anchor="middle" x="979.78" y="-158.3" font-family="Times,serif" font-size="14.00">provider[&quot;registry.terraform.io/hashicorp/time&quot;]</text>
</g>
<!-- [root] random_string.sshpassword (expand)&#45;&gt;[root] provider[&quot;registry.terraform.io/hashicorp/random&quot;] -->
<g id="edge23" class="edge">
<title>[root] random_string.sshpassword (expand)&#45;&gt;[root] provider[&quot;registry.terraform.io/hashicorp/random&quot;]</title>
<path fill="none" stroke="black" d="M2279.78,-287.7C2279.78,-279.98 2279.78,-270.71 2279.78,-262.11"/>
<polygon fill="black" stroke="black" points="2283.28,-262.1 2279.78,-252.1 2276.28,-262.1 2283.28,-262.1"/>
</g>
<!-- [root] time_sleep.wait_3_mins (expand)&#45;&gt;[root] azurerm_public_ip.myterraformpublicip (expand) -->
<g id="edge30" class="edge">
<title>[root] time_sleep.wait_3_mins (expand)&#45;&gt;[root] azurerm_public_ip.myterraformpublicip (expand)</title>
<path fill="none" stroke="black" d="M887.28,-220C810.17,-209.16 699.38,-193.59 613.09,-181.46"/>
<polygon fill="black" stroke="black" points="613.34,-177.96 602.95,-180.03 612.37,-184.89 613.34,-177.96"/>
</g>
<!-- [root] time_sleep.wait_3_mins (expand)&#45;&gt;[root] provider[&quot;registry.terraform.io/hashicorp/time&quot;] -->
<g id="edge31" class="edge">
<title>[root] time_sleep.wait_3_mins (expand)&#45;&gt;[root] provider[&quot;registry.terraform.io/hashicorp/time&quot;]</title>
<path fill="none" stroke="black" d="M979.78,-215.7C979.78,-207.98 979.78,-198.71 979.78,-190.11"/>
<polygon fill="black" stroke="black" points="983.28,-190.1 979.78,-180.1 976.28,-190.1 983.28,-190.1"/>
</g>
<!-- [root] output.ssh_password (expand) -->
<g id="node18" class="node">
<title>[root] output.ssh_password (expand)</title>
<ellipse fill="none" stroke="black" cx="2552.78" cy="-378" rx="180.87" ry="18"/>
<text text-anchor="middle" x="2552.78" y="-374.3" font-family="Times,serif" font-size="14.00">[root] output.ssh_password (expand)</text>
</g>
<!-- [root] output.ssh_password (expand)&#45;&gt;[root] random_string.sshpassword (expand) -->
<g id="edge16" class="edge">
<title>[root] output.ssh_password (expand)&#45;&gt;[root] random_string.sshpassword (expand)</title>
<path fill="none" stroke="black" d="M2490.49,-361.03C2450.49,-350.77 2398.27,-337.38 2355.83,-326.5"/>
<polygon fill="black" stroke="black" points="2356.65,-323.1 2346.09,-324 2354.91,-329.88 2356.65,-323.1"/>
</g>
<!-- [root] output.vm_public_ip (expand) -->
<g id="node19" class="node">
<title>[root] output.vm_public_ip (expand)</title>
<ellipse fill="none" stroke="black" cx="176.78" cy="-378" rx="176.57" ry="18"/>
<text text-anchor="middle" x="176.78" y="-374.3" font-family="Times,serif" font-size="14.00">[root] output.vm_public_ip (expand)</text>
</g>
<!-- [root] output.vm_public_ip (expand)&#45;&gt;[root] azurerm_public_ip.myterraformpublicip (expand) -->
<g id="edge17" class="edge">
<title>[root] output.vm_public_ip (expand)&#45;&gt;[root] azurerm_public_ip.myterraformpublicip (expand)</title>
<path fill="none" stroke="black" d="M190.55,-359.82C206.38,-340.76 233.82,-309.82 261.78,-288 317.03,-244.9 388.84,-206.98 435.13,-184.52"/>
<polygon fill="black" stroke="black" points="436.82,-187.59 444.32,-180.1 433.79,-181.28 436.82,-187.59"/>
</g>
<!-- [root] provider[&quot;registry.terraform.io/hashicorp/azurerm&quot;] (close) -->
<g id="node20" class="node">
<title>[root] provider[&quot;registry.terraform.io/hashicorp/azurerm&quot;] (close)</title>
<ellipse fill="none" stroke="black" cx="1638.78" cy="-450" rx="313.04" ry="18"/>
<text text-anchor="middle" x="1638.78" y="-446.3" font-family="Times,serif" font-size="14.00">[root] provider[&quot;registry.terraform.io/hashicorp/azurerm&quot;] (close)</text>
</g>
<!-- [root] provider[&quot;registry.terraform.io/hashicorp/azurerm&quot;] (close)&#45;&gt;[root] azurerm_linux_virtual_machine.myterraformvm (expand) -->
<g id="edge18" class="edge">
<title>[root] provider[&quot;registry.terraform.io/hashicorp/azurerm&quot;] (close)&#45;&gt;[root] azurerm_linux_virtual_machine.myterraformvm (expand)</title>
<path fill="none" stroke="black" d="M1718.46,-432.5C1768.24,-422.19 1832.53,-408.88 1884.52,-398.11"/>
<polygon fill="black" stroke="black" points="1885.33,-401.51 1894.41,-396.06 1883.91,-394.66 1885.33,-401.51"/>
</g>
<!-- [root] provider[&quot;registry.terraform.io/hashicorp/azurerm&quot;] (close)&#45;&gt;[root] azurerm_network_interface_security_group_association.example (expand) -->
<g id="edge19" class="edge">
<title>[root] provider[&quot;registry.terraform.io/hashicorp/azurerm&quot;] (close)&#45;&gt;[root] azurerm_network_interface_security_group_association.example (expand)</title>
<path fill="none" stroke="black" d="M1614.81,-431.7C1602.47,-422.8 1587.27,-411.82 1573.93,-402.2"/>
<polygon fill="black" stroke="black" points="1575.64,-399.12 1565.49,-396.1 1571.55,-404.79 1575.64,-399.12"/>
</g>
<!-- [root] provider[&quot;registry.terraform.io/hashicorp/null&quot;] (close) -->
<g id="node21" class="node">
<title>[root] provider[&quot;registry.terraform.io/hashicorp/null&quot;] (close)</title>
<ellipse fill="none" stroke="black" cx="407.78" cy="-450" rx="291.65" ry="18"/>
<text text-anchor="middle" x="407.78" y="-446.3" font-family="Times,serif" font-size="14.00">[root] provider[&quot;registry.terraform.io/hashicorp/null&quot;] (close)</text>
</g>
<!-- [root] provider[&quot;registry.terraform.io/hashicorp/null&quot;] (close)&#45;&gt;[root] null_resource.pipcheck (expand) -->
<g id="edge20" class="edge">
<title>[root] provider[&quot;registry.terraform.io/hashicorp/null&quot;] (close)&#45;&gt;[root] null_resource.pipcheck (expand)</title>
<path fill="none" stroke="black" d="M453.05,-432.05C479.16,-422.28 512.17,-409.92 539.77,-399.59"/>
<polygon fill="black" stroke="black" points="541.15,-402.82 549.29,-396.03 538.69,-396.26 541.15,-402.82"/>
</g>
<!-- [root] provider[&quot;registry.terraform.io/hashicorp/random&quot;] (close) -->
<g id="node22" class="node">
<title>[root] provider[&quot;registry.terraform.io/hashicorp/random&quot;] (close)</title>
<ellipse fill="none" stroke="black" cx="2279.78" cy="-450" rx="309.25" ry="18"/>
<text text-anchor="middle" x="2279.78" y="-446.3" font-family="Times,serif" font-size="14.00">[root] provider[&quot;registry.terraform.io/hashicorp/random&quot;] (close)</text>
</g>
<!-- [root] provider[&quot;registry.terraform.io/hashicorp/random&quot;] (close)&#45;&gt;[root] random_string.sshpassword (expand) -->
<g id="edge21" class="edge">
<title>[root] provider[&quot;registry.terraform.io/hashicorp/random&quot;] (close)&#45;&gt;[root] random_string.sshpassword (expand)</title>
<path fill="none" stroke="black" d="M2279.78,-431.87C2279.78,-407.67 2279.78,-363.21 2279.78,-334.39"/>
<polygon fill="black" stroke="black" points="2283.28,-334.19 2279.78,-324.19 2276.28,-334.19 2283.28,-334.19"/>
</g>
<!-- [root] provider[&quot;registry.terraform.io/hashicorp/time&quot;] (close) -->
<g id="node23" class="node">
<title>[root] provider[&quot;registry.terraform.io/hashicorp/time&quot;] (close)</title>
<ellipse fill="none" stroke="black" cx="1012.78" cy="-450" rx="295.15" ry="18"/>
<text text-anchor="middle" x="1012.78" y="-446.3" font-family="Times,serif" font-size="14.00">[root] provider[&quot;registry.terraform.io/hashicorp/time&quot;] (close)</text>
</g>
<!-- [root] provider[&quot;registry.terraform.io/hashicorp/time&quot;] (close)&#45;&gt;[root] time_sleep.wait_3_mins (expand) -->
<g id="edge22" class="edge">
<title>[root] provider[&quot;registry.terraform.io/hashicorp/time&quot;] (close)&#45;&gt;[root] time_sleep.wait_3_mins (expand)</title>
<path fill="none" stroke="black" d="M1010.14,-431.85C1004.43,-394.83 990.92,-307.18 984.01,-262.39"/>
<polygon fill="black" stroke="black" points="987.42,-261.58 982.44,-252.23 980.51,-262.65 987.42,-261.58"/>
</g>
<!-- [root] root -->
<g id="node24" class="node">
<title>[root] root</title>
<ellipse fill="none" stroke="black" cx="1325.78" cy="-522" rx="58.49" ry="18"/>
<text text-anchor="middle" x="1325.78" y="-518.3" font-family="Times,serif" font-size="14.00">[root] root</text>
</g>
<!-- [root] root&#45;&gt;[root] output.ssh_password (expand) -->
<g id="edge24" class="edge">
<title>[root] root&#45;&gt;[root] output.ssh_password (expand)</title>
<path fill="none" stroke="black" d="M1384.48,-520.79C1628.9,-519.62 2555.3,-512.29 2597.78,-468 2615.45,-449.58 2597.85,-422.86 2579.74,-403.51"/>
<polygon fill="black" stroke="black" points="2582.08,-400.9 2572.58,-396.23 2577.09,-405.81 2582.08,-400.9"/>
</g>
<!-- [root] root&#45;&gt;[root] output.vm_public_ip (expand) -->
<g id="edge25" class="edge">
<title>[root] root&#45;&gt;[root] output.vm_public_ip (expand)</title>
<path fill="none" stroke="black" d="M1267.14,-520.68C1029.3,-519.09 147.32,-510.34 106.78,-468 95.72,-456.44 99.66,-446.33 106.78,-432 112.89,-419.71 123.37,-409.51 134.38,-401.45"/>
<polygon fill="black" stroke="black" points="136.53,-404.21 142.84,-395.7 132.6,-398.42 136.53,-404.21"/>
</g>
<!-- [root] root&#45;&gt;[root] provider[&quot;registry.terraform.io/hashicorp/azurerm&quot;] (close) -->
<g id="edge26" class="edge">
<title>[root] root&#45;&gt;[root] provider[&quot;registry.terraform.io/hashicorp/azurerm&quot;] (close)</title>
<path fill="none" stroke="black" d="M1371.63,-510.75C1419.63,-500.01 1496.05,-482.92 1554.88,-469.76"/>
<polygon fill="black" stroke="black" points="1555.91,-473.12 1564.91,-467.52 1554.38,-466.29 1555.91,-473.12"/>
</g>
<!-- [root] root&#45;&gt;[root] provider[&quot;registry.terraform.io/hashicorp/null&quot;] (close) -->
<g id="edge27" class="edge">
<title>[root] root&#45;&gt;[root] provider[&quot;registry.terraform.io/hashicorp/null&quot;] (close)</title>
<path fill="none" stroke="black" d="M1269.74,-516.73C1138.21,-506.7 804.89,-481.28 593.4,-465.15"/>
<polygon fill="black" stroke="black" points="593.66,-461.66 583.42,-464.39 593.12,-468.64 593.66,-461.66"/>
</g>
<!-- [root] root&#45;&gt;[root] provider[&quot;registry.terraform.io/hashicorp/random&quot;] (close) -->
<g id="edge28" class="edge">
<title>[root] root&#45;&gt;[root] provider[&quot;registry.terraform.io/hashicorp/random&quot;] (close)</title>
<path fill="none" stroke="black" d="M1381.9,-516.88C1516.82,-506.98 1864.57,-481.47 2085.57,-465.25"/>
<polygon fill="black" stroke="black" points="2085.95,-468.73 2095.66,-464.51 2085.44,-461.75 2085.95,-468.73"/>
</g>
<!-- [root] root&#45;&gt;[root] provider[&quot;registry.terraform.io/hashicorp/time&quot;] (close) -->
<g id="edge29" class="edge">
<title>[root] root&#45;&gt;[root] provider[&quot;registry.terraform.io/hashicorp/time&quot;] (close)</title>
<path fill="none" stroke="black" d="M1279.94,-510.75C1231.86,-499.99 1155.27,-482.86 1096.39,-469.7"/>
<polygon fill="black" stroke="black" points="1096.88,-466.22 1086.36,-467.45 1095.36,-473.05 1096.88,-466.22"/>
</g>
</g>
</svg>
